<?xml version="1.0" encoding="UTF-8"?>
<!DOCTYPE svg PUBLIC "-//W3C//DTD SVG 1.1//EN" "http://www.w3.org/Graphics/SVG/1.1/DTD/svg11.dtd">
<svg xmlns="http://www.w3.org/2000/svg" version="1.1" width="1201px" height="1567px" style="shape-rendering:geometricPrecision; text-rendering:geometricPrecision; image-rendering:optimizeQuality; fill-rule:evenodd; clip-rule:evenodd" xmlns:xlink="http://www.w3.org/1999/xlink">
<g><path style="opacity:1" fill="#df2329" d="M 70.5,70.5 C 419.5,70.5 768.5,70.5 1117.5,70.5C 1117.5,483.5 1117.5,896.5 1117.5,1309.5C 768.5,1309.5 419.5,1309.5 70.5,1309.5C 70.5,896.5 70.5,483.5 70.5,70.5 Z"/></g>
<g><path style="opacity:1" fill="#f17241" d="M 697.5,138.5 C 696.127,138.343 694.793,138.51 693.5,139C 684.951,145.431 676.284,151.598 667.5,157.5C 665.765,155.765 663.765,154.432 661.5,153.5C 655.797,155.902 650.131,158.402 644.5,161C 643.609,166.851 642.609,172.684 641.5,178.5C 637.168,179.266 632.834,180.1 628.5,181C 625.562,182.808 622.562,184.308 619.5,185.5C 616.569,183.909 613.902,181.909 611.5,179.5C 607.413,183.673 604.913,188.673 604,194.5C 602.293,192.963 600.793,191.296 599.5,189.5C 616.265,171.065 634.265,154.065 653.5,138.5C 668.324,137.306 682.991,137.306 697.5,138.5 Z"/></g>
<g><path style="opacity:1" fill="#f17a41" d="M 697.5,138.5 C 708.063,138.611 718.396,139.611 728.5,141.5C 714.505,151.159 700.505,160.826 686.5,170.5C 680.269,169.307 674.936,166.307 670.5,161.5C 669.5,160.167 668.5,158.833 667.5,157.5C 676.284,151.598 684.951,145.431 693.5,139C 694.793,138.51 696.127,138.343 697.5,138.5 Z"/></g>
<g><path style="opacity:1" fill="#f06d41" d="M 653.5,138.5 C 634.265,154.065 616.265,171.065 599.5,189.5C 599.167,189.5 598.833,189.5 598.5,189.5C 597.189,186.189 594.855,183.855 591.5,182.5C 589.84,184.993 587.84,187.16 585.5,189C 584.072,189.579 582.738,189.412 581.5,188.5C 579.086,187.089 577.419,185.089 576.5,182.5C 588.468,168.864 601.135,155.864 614.5,143.5C 627.254,141.062 640.254,139.396 653.5,138.5 Z"/></g>
<g><path style="opacity:1" fill="#f17f41" d="M 728.5,141.5 C 733.519,141.752 738.519,142.252 743.5,143C 751.719,144.426 759.719,146.259 767.5,148.5C 753.035,155.898 739.035,164.065 725.5,173C 722.964,173.186 720.631,173.686 718.5,174.5C 714.816,175.728 711.15,175.728 707.5,174.5C 707.196,173.85 706.863,173.183 706.5,172.5C 701.546,171.146 696.712,171.479 692,173.5C 690.744,173.352 689.577,173.018 688.5,172.5C 687.5,172.167 686.833,171.5 686.5,170.5C 700.505,160.826 714.505,151.159 728.5,141.5 Z"/></g>
<g><path style="opacity:1" fill="#f06741" d="M 614.5,143.5 C 601.135,155.864 588.468,168.864 576.5,182.5C 575.262,181.588 573.928,181.421 572.5,182C 568.5,186.667 564.5,191.333 560.5,196C 559.207,196.49 557.873,196.657 556.5,196.5C 551.199,192.534 546.199,188.2 541.5,183.5C 548.827,174.506 556.16,165.506 563.5,156.5C 579.965,150.467 596.965,146.133 614.5,143.5 Z"/></g>
<g><path style="opacity:1" fill="#f28641" d="M 767.5,148.5 C 780.236,151.194 792.57,154.86 804.5,159.5C 800.268,159.778 796.268,160.944 792.5,163C 768.129,174.506 745.129,188.006 723.5,203.5C 721.573,200.863 721.073,197.863 722,194.5C 724.527,191.061 727.527,188.061 731,185.5C 732.07,181.858 731.236,178.858 728.5,176.5C 728.389,175.883 728.056,175.383 727.5,175C 724.518,174.502 721.518,174.335 718.5,174.5C 720.631,173.686 722.964,173.186 725.5,173C 739.035,164.065 753.035,155.898 767.5,148.5 Z"/></g>
<g><path style="opacity:1" fill="#f89f29" d="M 667.5,157.5 C 668.5,158.833 669.5,160.167 670.5,161.5C 651.816,198.201 633.15,234.868 614.5,271.5C 606.715,267.965 600.049,269.298 594.5,275.5C 610.068,243.196 626.068,211.03 642.5,179C 642.272,178.601 641.938,178.435 641.5,178.5C 642.609,172.684 643.609,166.851 644.5,161C 650.131,158.402 655.797,155.902 661.5,153.5C 663.765,154.432 665.765,155.765 667.5,157.5 Z"/></g>
<g><path style="opacity:1" fill="#f06042" d="M 563.5,156.5 C 556.16,165.506 548.827,174.506 541.5,183.5C 537.55,181.121 533.216,180.121 528.5,180.5C 528.5,184.167 528.5,187.833 528.5,191.5C 525.331,191.662 523.331,193.328 522.5,196.5C 520.659,197.23 518.825,197.897 517,198.5C 516.333,199.833 516.333,201.167 517,202.5C 519.04,204.37 520.873,206.37 522.5,208.5C 435.042,341.243 410.876,484.91 450,639.5C 470.256,710.69 503.589,774.69 550,831.5C 562.73,845.391 575.23,859.391 587.5,873.5C 574.634,870.117 561.967,866.117 549.5,861.5C 432.473,724.759 390.64,567.426 424,389.5C 442.052,309.085 475.885,236.418 525.5,171.5C 537.627,165.342 550.294,160.342 563.5,156.5 Z"/></g>
<g><path style="opacity:1" fill="#f28c40" d="M 804.5,159.5 C 815.688,162.768 826.355,167.101 836.5,172.5C 800.626,183.767 767.959,200.767 738.5,223.5C 736.5,223.5 734.5,223.5 732.5,223.5C 731.432,222.566 730.099,222.232 728.5,222.5C 728.666,218.486 728.499,214.486 728,210.5C 726.25,208.266 724.75,205.932 723.5,203.5C 745.129,188.006 768.129,174.506 792.5,163C 796.268,160.944 800.268,159.778 804.5,159.5 Z"/></g>
<g><path style="opacity:1" fill="#f6982a" d="M 670.5,161.5 C 674.936,166.307 680.269,169.307 686.5,170.5C 686.833,171.5 687.5,172.167 688.5,172.5C 669.93,211.307 650.597,249.641 630.5,287.5C 628.26,282.593 624.927,278.593 620.5,275.5C 618.5,274.167 616.5,272.833 614.5,271.5C 633.15,234.868 651.816,198.201 670.5,161.5 Z"/></g>
<g><path style="opacity:1" fill="#ef5a42" d="M 525.5,171.5 C 475.885,236.418 442.052,309.085 424,389.5C 390.64,567.426 432.473,724.759 549.5,861.5C 537.757,857.259 526.424,852.259 515.5,846.5C 421.992,725.86 383.159,589.193 399,436.5C 410.393,346.105 441.56,263.438 492.5,188.5C 502.751,181.54 513.751,175.874 525.5,171.5 Z"/></g>
<g><path style="opacity:1" fill="#f5922c" d="M 707.5,174.5 C 686.249,218.003 664.249,261.003 641.5,303.5C 639.664,300.832 637.331,298.666 634.5,297C 630.168,296.417 625.835,295.917 621.5,295.5C 621.238,294.022 621.571,292.689 622.5,291.5C 625.714,291.05 628.381,289.717 630.5,287.5C 650.597,249.641 669.93,211.307 688.5,172.5C 689.577,173.018 690.744,173.352 692,173.5C 696.712,171.479 701.546,171.146 706.5,172.5C 706.863,173.183 707.196,173.85 707.5,174.5 Z"/></g>
<g><path style="opacity:1" fill="#f58c2d" d="M 707.5,174.5 C 711.15,175.728 714.816,175.728 718.5,174.5C 721.518,174.335 724.518,174.502 727.5,175C 728.056,175.383 728.389,175.883 728.5,176.5C 695.287,241.592 662.621,306.925 630.5,372.5C 628.833,371.167 627.167,369.833 625.5,368.5C 620.165,361.318 613.165,356.318 604.5,353.5C 602.5,353.167 600.5,352.833 598.5,352.5C 598.5,350.5 598.5,348.5 598.5,346.5C 607.301,347.992 609.968,344.492 606.5,336C 606.759,334.739 607.426,333.739 608.5,333C 615.833,333 623.167,333 630.5,333C 640.01,331.999 644.676,326.832 644.5,317.5C 645.5,317.5 646.5,317.5 647.5,317.5C 647.664,314.813 647.497,312.146 647,309.5C 644.792,307.82 642.959,305.82 641.5,303.5C 664.249,261.003 686.249,218.003 707.5,174.5 Z"/></g>
<g><path style="opacity:1" fill="#f39240" d="M 836.5,172.5 C 847.312,177.071 857.645,182.405 867.5,188.5C 828.804,198.185 793.138,214.351 760.5,237C 759.29,238.039 758.29,239.206 757.5,240.5C 753.306,237.571 748.973,234.905 744.5,232.5C 743.216,228.898 741.216,225.898 738.5,223.5C 767.959,200.767 800.626,183.767 836.5,172.5 Z"/></g>
<g><path style="opacity:1" fill="#f4862f" d="M 728.5,176.5 C 731.236,178.858 732.07,181.858 731,185.5C 727.527,188.061 724.527,191.061 722,194.5C 721.073,197.863 721.573,200.863 723.5,203.5C 724.75,205.932 726.25,208.266 728,210.5C 728.499,214.486 728.666,218.486 728.5,222.5C 730.099,222.232 731.432,222.566 732.5,223.5C 731.022,223.238 729.689,223.571 728.5,224.5C 702.5,275.833 676.5,327.167 650.5,378.5C 652.291,379.17 653.958,379.837 655.5,380.5C 653.5,380.5 651.5,380.5 649.5,380.5C 642.424,379.801 636.091,377.134 630.5,372.5C 662.621,306.925 695.287,241.592 728.5,176.5 Z"/></g>
<g><path style="opacity:1" fill="#f9a426" d="M 641.5,178.5 C 641.938,178.435 642.272,178.601 642.5,179C 626.068,211.03 610.068,243.196 594.5,275.5C 593.061,277.588 592.394,279.921 592.5,282.5C 590.5,282.5 588.5,282.5 586.5,282.5C 581.467,279.492 576.133,277.492 570.5,276.5C 571.822,276.67 572.989,276.337 574,275.5C 589.435,245.629 604.602,215.629 619.5,185.5C 622.562,184.308 625.562,182.808 628.5,181C 632.834,180.1 637.168,179.266 641.5,178.5 Z"/></g>
<g><path style="opacity:1" fill="#faab24" d="M 619.5,185.5 C 604.602,215.629 589.435,245.629 574,275.5C 572.989,276.337 571.822,276.67 570.5,276.5C 569.041,276.567 567.708,276.234 566.5,275.5C 563.097,273.1 560.43,270.1 558.5,266.5C 572.088,240.991 585.422,215.324 598.5,189.5C 598.833,189.5 599.167,189.5 599.5,189.5C 600.793,191.296 602.293,192.963 604,194.5C 604.913,188.673 607.413,183.673 611.5,179.5C 613.902,181.909 616.569,183.909 619.5,185.5 Z"/></g>
<g><path style="opacity:1" fill="#fcb71d" d="M 576.5,182.5 C 577.419,185.089 579.086,187.089 581.5,188.5C 573.405,205.024 565.072,221.357 556.5,237.5C 555.721,231.526 552.554,228.86 547,229.5C 546.506,231.134 546.34,232.801 546.5,234.5C 543.413,234.633 541.413,233.3 540.5,230.5C 540.5,229.833 540.5,229.167 540.5,228.5C 541.376,228.631 542.043,228.298 542.5,227.5C 547.372,217.589 552.372,207.755 557.5,198C 556.944,197.617 556.611,197.117 556.5,196.5C 557.873,196.657 559.207,196.49 560.5,196C 564.5,191.333 568.5,186.667 572.5,182C 573.928,181.421 575.262,181.588 576.5,182.5 Z"/></g>
<g><path style="opacity:1" fill="#fbb022" d="M 598.5,189.5 C 585.422,215.324 572.088,240.991 558.5,266.5C 557.21,265.942 556.377,264.942 556,263.5C 554.722,259.835 553.556,256.168 552.5,252.5C 553.54,247.42 554.873,242.42 556.5,237.5C 565.072,221.357 573.405,205.024 581.5,188.5C 582.738,189.412 584.072,189.579 585.5,189C 587.84,187.16 589.84,184.993 591.5,182.5C 594.855,183.855 597.189,186.189 598.5,189.5 Z"/></g>
<g><path style="opacity:1" fill="#fdbf16" d="M 541.5,183.5 C 546.199,188.2 551.199,192.534 556.5,196.5C 556.611,197.117 556.944,197.617 557.5,198C 552.372,207.755 547.372,217.589 542.5,227.5C 542.043,228.298 541.376,228.631 540.5,228.5C 540.649,227.448 540.483,226.448 540,225.5C 534.298,219.63 528.465,213.964 522.5,208.5C 520.873,206.37 519.04,204.37 517,202.5C 516.333,201.167 516.333,199.833 517,198.5C 518.825,197.897 520.659,197.23 522.5,196.5C 523.331,193.328 525.331,191.662 528.5,191.5C 528.5,187.833 528.5,184.167 528.5,180.5C 533.216,180.121 537.55,181.121 541.5,183.5 Z"/></g>
<g><path style="opacity:1" fill="#ef5442" d="M 492.5,188.5 C 441.56,263.438 410.393,346.105 399,436.5C 383.159,589.193 421.992,725.86 515.5,846.5C 500.339,839.425 486.006,831.092 472.5,821.5C 375.331,669.825 351.498,507.158 401,333.5C 414.091,292.325 431.257,252.992 452.5,215.5C 464.788,205.017 478.122,196.017 492.5,188.5 Z"/></g>
<g><path style="opacity:1" fill="#f39940" d="M 867.5,188.5 C 878.225,194.188 888.225,200.854 897.5,208.5C 860.553,215.302 825.886,228.302 793.5,247.5C 790.263,246.208 787.263,244.374 784.5,242C 775.423,241.806 766.423,241.306 757.5,240.5C 758.29,239.206 759.29,238.039 760.5,237C 793.138,214.351 828.804,198.185 867.5,188.5 Z"/></g>
<g><path style="opacity:1" fill="#f06741" d="M 522.5,208.5 C 528.465,213.964 534.298,219.63 540,225.5C 540.483,226.448 540.649,227.448 540.5,228.5C 540.5,229.167 540.5,229.833 540.5,230.5C 460.388,355.179 438.888,489.512 476,633.5C 505.013,733.604 559.513,816.604 639.5,882.5C 621.956,880.641 604.623,877.641 587.5,873.5C 575.23,859.391 562.73,845.391 550,831.5C 503.589,774.69 470.256,710.69 450,639.5C 410.876,484.91 435.042,341.243 522.5,208.5 Z"/></g>
<g><path style="opacity:1" fill="#f49f3e" d="M 897.5,208.5 C 906.381,214.108 914.714,220.441 922.5,227.5C 816.449,241.29 740.116,295.957 693.5,391.5C 693.802,388.941 693.468,386.607 692.5,384.5C 688.803,379.972 685.303,375.305 682,370.5C 680.745,365.738 681.912,361.738 685.5,358.5C 701.531,332.267 720.531,308.1 742.5,286C 748.397,280.594 754.397,275.428 760.5,270.5C 761.325,266.353 761.825,262.019 762,257.5C 762.833,256.667 763.667,255.833 764.5,255C 768.5,254.667 772.5,254.333 776.5,254C 778.539,251.626 780.872,249.626 783.5,248C 787.025,248.016 790.358,247.849 793.5,247.5C 825.886,228.302 860.553,215.302 897.5,208.5 Z"/></g>
<g><path style="opacity:1" fill="#ef4d41" d="M 452.5,215.5 C 431.257,252.992 414.091,292.325 401,333.5C 351.498,507.158 375.331,669.825 472.5,821.5C 455.056,810.73 439.056,798.064 424.5,783.5C 348.869,637.523 334.036,485.523 380,327.5C 387.425,304.053 395.925,281.053 405.5,258.5C 411.572,250.922 418.239,243.756 425.5,237C 434.106,229.216 443.106,222.049 452.5,215.5 Z"/></g>
<g><path style="opacity:1" fill="#f37f30" d="M 732.5,223.5 C 734.5,223.5 736.5,223.5 738.5,223.5C 741.216,225.898 743.216,228.898 744.5,232.5C 729.352,260.793 714.686,289.46 700.5,318.5C 700.957,319.298 701.624,319.631 702.5,319.5C 699.727,320.657 696.727,321.324 693.5,321.5C 691.926,334.122 689.259,346.456 685.5,358.5C 681.912,361.738 680.745,365.738 682,370.5C 685.303,375.305 688.803,379.972 692.5,384.5C 691.115,385.574 689.949,386.907 689,388.5C 685.059,396.719 680.892,404.719 676.5,412.5C 673.755,408.963 670.088,407.296 665.5,407.5C 663.803,405.695 662.97,403.361 663,400.5C 661.247,399.373 659.413,398.373 657.5,397.5C 657.167,396.167 656.833,394.833 656.5,393.5C 657.909,389.304 658.576,384.971 658.5,380.5C 657.5,380.5 656.5,380.5 655.5,380.5C 653.958,379.837 652.291,379.17 650.5,378.5C 676.5,327.167 702.5,275.833 728.5,224.5C 729.689,223.571 731.022,223.238 732.5,223.5 Z"/></g>
<g><path style="opacity:1" fill="#f06d42" d="M 556.5,237.5 C 554.873,242.42 553.54,247.42 552.5,252.5C 491.762,350.151 469.262,456.151 485,570.5C 503.216,683.295 554.55,777.628 639,853.5C 639.21,851.942 639.71,850.609 640.5,849.5C 639.739,854.361 640.739,858.695 643.5,862.5C 643,863.5 642.5,864.5 642,865.5C 639.035,867.724 636.202,870.058 633.5,872.5C 634.025,873.192 634.692,873.692 635.5,874C 638.817,874.498 642.15,874.665 645.5,874.5C 650.169,873.165 654.836,871.832 659.5,870.5C 665.857,875.198 672.19,879.865 678.5,884.5C 665.441,884.791 652.441,884.124 639.5,882.5C 559.513,816.604 505.013,733.604 476,633.5C 438.888,489.512 460.388,355.179 540.5,230.5C 541.413,233.3 543.413,234.633 546.5,234.5C 546.34,232.801 546.506,231.134 547,229.5C 552.554,228.86 555.721,231.526 556.5,237.5 Z"/></g>
<g><path style="opacity:1" fill="#f27a31" d="M 744.5,232.5 C 748.973,234.905 753.306,237.571 757.5,240.5C 766.423,241.306 775.423,241.806 784.5,242C 787.263,244.374 790.263,246.208 793.5,247.5C 790.358,247.849 787.025,248.016 783.5,248C 780.872,249.626 778.539,251.626 776.5,254C 772.5,254.333 768.5,254.667 764.5,255C 763.667,255.833 762.833,256.667 762,257.5C 761.825,262.019 761.325,266.353 760.5,270.5C 756.181,269.799 752.514,270.966 749.5,274C 748.207,274.49 746.873,274.657 745.5,274.5C 745.5,272.833 745.5,271.167 745.5,269.5C 742.807,269.572 740.14,269.905 737.5,270.5C 727.927,265.073 725.761,267.073 731,276.5C 731.667,279.167 731.667,281.833 731,284.5C 728.042,288.145 724.375,290.812 720,292.5C 719.828,296.871 719.328,301.204 718.5,305.5C 712.78,309.897 707.447,314.564 702.5,319.5C 701.624,319.631 700.957,319.298 700.5,318.5C 714.686,289.46 729.352,260.793 744.5,232.5 Z"/></g>
<g><path style="opacity:1" fill="#f5a53e" d="M 922.5,227.5 C 931.133,234.465 939.133,242.132 946.5,250.5C 865.045,252.979 798.879,285.646 748,348.5C 733.38,367.737 721.88,388.737 713.5,411.5C 706.583,406.757 700.083,401.424 694,395.5C 693.51,394.207 693.343,392.873 693.5,391.5C 740.116,295.957 816.449,241.29 922.5,227.5 Z"/></g>
<g><path style="opacity:1" fill="#f5ab3d" d="M 946.5,250.5 C 953.604,256.266 959.604,262.933 964.5,270.5C 888.983,267.026 825.483,292.693 774,347.5C 750.177,374.473 733.677,405.473 724.5,440.5C 721.74,437.317 719.74,433.651 718.5,429.5C 719.778,422.517 718.112,416.517 713.5,411.5C 721.88,388.737 733.38,367.737 748,348.5C 798.879,285.646 865.045,252.979 946.5,250.5 Z"/></g>
<g><path style="opacity:1" fill="#f17342" d="M 552.5,252.5 C 553.556,256.168 554.722,259.835 556,263.5C 556.377,264.942 557.21,265.942 558.5,266.5C 560.43,270.1 563.097,273.1 566.5,275.5C 501.173,389.791 487.34,510.124 525,636.5C 548.358,707.422 586.525,768.922 639.5,821C 640.094,821.464 640.761,821.631 641.5,821.5C 640.556,830.447 640.222,839.447 640.5,848.5C 640.5,848.833 640.5,849.167 640.5,849.5C 639.71,850.609 639.21,851.942 639,853.5C 554.55,777.628 503.216,683.295 485,570.5C 469.262,456.151 491.762,350.151 552.5,252.5 Z"/></g>
<g><path style="opacity:1" fill="#ee4741" d="M 405.5,258.5 C 395.925,281.053 387.425,304.053 380,327.5C 334.036,485.523 348.869,637.523 424.5,783.5C 407.296,767.71 391.962,750.377 378.5,731.5C 325.362,593.92 320.362,454.587 363.5,313.5C 369.319,302.538 376.152,292.204 384,282.5C 390.662,274.007 397.828,266.007 405.5,258.5 Z"/></g>
<g><path style="opacity:1" fill="#f39a3f" d="M 760.5,270.5 C 754.397,275.428 748.397,280.594 742.5,286C 720.531,308.1 701.531,332.267 685.5,358.5C 689.259,346.456 691.926,334.122 693.5,321.5C 696.727,321.324 699.727,320.657 702.5,319.5C 707.447,314.564 712.78,309.897 718.5,305.5C 719.328,301.204 719.828,296.871 720,292.5C 724.375,290.812 728.042,288.145 731,284.5C 731.667,281.833 731.667,279.167 731,276.5C 725.761,267.073 727.927,265.073 737.5,270.5C 740.14,269.905 742.807,269.572 745.5,269.5C 745.5,271.167 745.5,272.833 745.5,274.5C 746.873,274.657 748.207,274.49 749.5,274C 752.514,270.966 756.181,269.799 760.5,270.5 Z"/></g>
<g><path style="opacity:1" fill="#f28041" d="M 614.5,271.5 C 616.5,272.833 618.5,274.167 620.5,275.5C 550.7,381.984 533.2,496.651 568,619.5C 585.327,674.068 612.66,722.735 650,765.5C 651.129,767.141 652.629,768.141 654.5,768.5C 652.873,770.63 651.04,772.63 649,774.5C 647.991,776.025 647.491,777.692 647.5,779.5C 642.463,779.413 637.463,779.746 632.5,780.5C 580.575,722.978 547.409,655.644 533,578.5C 517.137,488.071 528.803,401.404 568,318.5C 574.469,306.561 580.635,294.561 586.5,282.5C 588.5,282.5 590.5,282.5 592.5,282.5C 592.394,279.921 593.061,277.588 594.5,275.5C 600.049,269.298 606.715,267.965 614.5,271.5 Z"/></g>
<g><path style="opacity:1" fill="#f6b13c" d="M 964.5,270.5 C 967.78,273.043 970.613,276.043 973,279.5C 978.079,286.398 982.913,293.398 987.5,300.5C 902.697,287.679 833.863,314.679 781,381.5C 763.97,405.891 752.136,432.558 745.5,461.5C 739.539,458.688 734.539,454.688 730.5,449.5C 728.5,446.5 726.5,443.5 724.5,440.5C 733.677,405.473 750.177,374.473 774,347.5C 825.483,292.693 888.983,267.026 964.5,270.5 Z"/></g>
<g><path style="opacity:1" fill="#f28641" d="M 620.5,275.5 C 624.927,278.593 628.26,282.593 630.5,287.5C 628.381,289.717 625.714,291.05 622.5,291.5C 621.571,292.689 621.238,294.022 621.5,295.5C 625.835,295.917 630.168,296.417 634.5,297C 637.331,298.666 639.664,300.832 641.5,303.5C 642.959,305.82 644.792,307.82 647,309.5C 647.497,312.146 647.664,314.813 647.5,317.5C 646.5,317.5 645.5,317.5 644.5,317.5C 644.676,326.832 640.01,331.999 630.5,333C 623.167,333 615.833,333 608.5,333C 607.426,333.739 606.759,334.739 606.5,336C 609.968,344.492 607.301,347.992 598.5,346.5C 598.5,348.5 598.5,350.5 598.5,352.5C 600.5,352.833 602.5,353.167 604.5,353.5C 559.702,465.691 565.202,575.357 621,682.5C 636.626,709.955 655.126,735.288 676.5,758.5C 673.368,761.572 669.701,763.906 665.5,765.5C 663.444,764.952 661.777,763.786 660.5,762C 655.079,760.72 653.079,762.887 654.5,768.5C 652.629,768.141 651.129,767.141 650,765.5C 612.66,722.735 585.327,674.068 568,619.5C 533.2,496.651 550.7,381.984 620.5,275.5 Z"/></g>
<g><path style="opacity:1" fill="#f17941" d="M 566.5,275.5 C 567.708,276.234 569.041,276.567 570.5,276.5C 576.133,277.492 581.467,279.492 586.5,282.5C 580.635,294.561 574.469,306.561 568,318.5C 528.803,401.404 517.137,488.071 533,578.5C 547.409,655.644 580.575,722.978 632.5,780.5C 623.838,785.773 623.171,792.273 630.5,800C 632.134,800.494 633.801,800.66 635.5,800.5C 635.5,799.5 635.5,798.5 635.5,797.5C 637.199,797.34 638.866,797.506 640.5,798C 642.447,801.07 644.947,803.57 648,805.5C 648.667,806.833 648.667,808.167 648,809.5C 643.476,812.247 641.31,816.247 641.5,821.5C 640.761,821.631 640.094,821.464 639.5,821C 586.525,768.922 548.358,707.422 525,636.5C 487.34,510.124 501.173,389.791 566.5,275.5 Z"/></g>
<g><path style="opacity:1" fill="#f6b83a" d="M 987.5,300.5 C 995.016,310.036 1001.35,320.369 1006.5,331.5C 939.959,310.708 879.959,322.542 826.5,367C 790.977,399.681 770.977,440.181 766.5,488.5C 760.869,483.37 755.369,478.036 750,472.5C 748.951,468.626 747.451,464.959 745.5,461.5C 752.136,432.558 763.97,405.891 781,381.5C 833.863,314.679 902.697,287.679 987.5,300.5 Z"/></g>
<g><path style="opacity:1" fill="#ee4241" d="M 363.5,313.5 C 320.362,454.587 325.362,593.92 378.5,731.5C 336.028,673.277 312.195,607.944 307,535.5C 301.855,455.152 320.689,381.152 363.5,313.5 Z"/></g>
<g><path style="opacity:1" fill="#f7be39" d="M 1006.5,331.5 C 1012.28,340.719 1017.28,350.386 1021.5,360.5C 1007.37,354.179 992.704,349.346 977.5,346C 902.756,335.628 845.922,362.462 807,426.5C 794.872,449.677 788.706,474.344 788.5,500.5C 786.947,498.615 784.947,497.615 782.5,497.5C 782.5,498.833 782.5,500.167 782.5,501.5C 778.576,500.536 775.243,498.536 772.5,495.5C 770.5,493.167 768.5,490.833 766.5,488.5C 770.977,440.181 790.977,399.681 826.5,367C 879.959,322.542 939.959,310.708 1006.5,331.5 Z"/></g>
<g><path style="opacity:1" fill="#f7c238" d="M 1021.5,360.5 C 1023.17,364.495 1024.83,368.495 1026.5,372.5C 974.789,343.752 922.789,343.252 870.5,371C 820.612,402.268 795.946,447.434 796.5,506.5C 792.98,505.647 790.313,503.647 788.5,500.5C 788.706,474.344 794.872,449.677 807,426.5C 845.922,362.462 902.756,335.628 977.5,346C 992.704,349.346 1007.37,354.179 1021.5,360.5 Z"/></g>
<g><path style="opacity:1" fill="#f7c537" d="M 1026.5,372.5 C 1030.42,381.601 1033.76,390.934 1036.5,400.5C 993.575,366.291 946.242,358.791 894.5,378C 842.43,402.766 815.097,444.099 812.5,502C 812.605,516.125 814.605,529.958 818.5,543.5C 811.66,539.657 806.994,533.99 804.5,526.5C 802.731,519.996 802.065,513.33 802.5,506.5C 800.5,506.5 798.5,506.5 796.5,506.5C 795.946,447.434 820.612,402.268 870.5,371C 922.789,343.252 974.789,343.752 1026.5,372.5 Z"/></g>
<g><path style="opacity:1" fill="#f28c40" d="M 604.5,353.5 C 613.165,356.318 620.165,361.318 625.5,368.5C 584.307,474.665 591.141,577.665 646,677.5C 656.115,694.947 667.781,711.28 681,726.5C 681.278,725.584 681.778,724.918 682.5,724.5C 682.299,727.765 683.466,730.431 686,732.5C 686.172,737.202 686.672,741.868 687.5,746.5C 691.184,748.839 695.184,750.172 699.5,750.5C 699.5,755.5 699.5,760.5 699.5,765.5C 694.317,766.465 689.984,765.132 686.5,761.5C 684.038,757.717 680.705,756.717 676.5,758.5C 655.126,735.288 636.626,709.955 621,682.5C 565.202,575.357 559.702,465.691 604.5,353.5 Z"/></g>
<g><path style="opacity:1" fill="#f7cb35" d="M 1036.5,400.5 C 1042.12,419.544 1046.45,438.877 1049.5,458.5C 1023.11,407.968 981.443,386.468 924.5,394C 869.502,409.005 840.169,445.005 836.5,502C 840.101,558.567 869.101,594.567 923.5,610C 973.241,618.033 1012.41,601.533 1041,560.5C 1044.8,553.563 1048.3,546.563 1051.5,539.5C 1050.14,558.686 1047.47,577.686 1043.5,596.5C 1003.69,633.869 957.354,645.035 904.5,630C 876.177,619.828 853.177,602.662 835.5,578.5C 834.073,576.852 833.24,574.852 833,572.5C 831.83,566.147 830.664,559.813 829.5,553.5C 829.677,546.012 826.01,542.679 818.5,543.5C 814.605,529.958 812.605,516.125 812.5,502C 815.097,444.099 842.43,402.766 894.5,378C 946.242,358.791 993.575,366.291 1036.5,400.5 Z"/></g>
<g><path style="opacity:1" fill="#f39240" d="M 625.5,368.5 C 627.167,369.833 628.833,371.167 630.5,372.5C 636.091,377.134 642.424,379.801 649.5,380.5C 647.876,380.36 646.71,381.027 646,382.5C 617.486,458.334 616.153,534.667 642,611.5C 657.274,653.425 680.107,690.425 710.5,722.5C 707.375,723.479 704.042,723.813 700.5,723.5C 700.5,721.833 700.5,720.167 700.5,718.5C 696.641,718.846 693.641,720.68 691.5,724C 688.518,724.498 685.518,724.665 682.5,724.5C 681.778,724.918 681.278,725.584 681,726.5C 667.781,711.28 656.115,694.947 646,677.5C 591.141,577.665 584.307,474.665 625.5,368.5 Z"/></g>
<g><path style="opacity:1" fill="#f39940" d="M 649.5,380.5 C 651.5,380.5 653.5,380.5 655.5,380.5C 656.5,380.5 657.5,380.5 658.5,380.5C 658.576,384.971 657.909,389.304 656.5,393.5C 656.833,394.833 657.167,396.167 657.5,397.5C 659.413,398.373 661.247,399.373 663,400.5C 662.97,403.361 663.803,405.695 665.5,407.5C 635.208,505.745 649.708,596.745 709,680.5C 715.667,688.5 722.333,696.5 729,704.5C 729.671,705.252 730.504,705.586 731.5,705.5C 730.833,706.167 730.167,706.833 729.5,707.5C 724.897,708.383 720.23,708.717 715.5,708.5C 715.666,712.846 715.499,717.179 715,721.5C 713.644,722.38 712.144,722.714 710.5,722.5C 680.107,690.425 657.274,653.425 642,611.5C 616.153,534.667 617.486,458.334 646,382.5C 646.71,381.027 647.876,380.36 649.5,380.5 Z"/></g>
<g><path style="opacity:1" fill="#f7d133" d="M 1049.5,458.5 C 1052.64,485.471 1053.3,512.471 1051.5,539.5C 1048.3,546.563 1044.8,553.563 1041,560.5C 1012.41,601.533 973.241,618.033 923.5,610C 869.101,594.567 840.101,558.567 836.5,502C 840.169,445.005 869.502,409.005 924.5,394C 981.443,386.468 1023.11,407.968 1049.5,458.5 Z"/></g>
<g><path style="opacity:1" fill="#f26f32" d="M 692.5,384.5 C 693.468,386.607 693.802,388.941 693.5,391.5C 693.343,392.873 693.51,394.207 694,395.5C 700.083,401.424 706.583,406.757 713.5,411.5C 718.112,416.517 719.778,422.517 718.5,429.5C 717.698,428.048 717.198,426.382 717,424.5C 712.216,433.733 707.716,443.067 703.5,452.5C 702.833,452.5 702.167,452.5 701.5,452.5C 695.138,445.141 688.804,437.808 682.5,430.5C 679.316,424.966 677.316,418.966 676.5,412.5C 680.892,404.719 685.059,396.719 689,388.5C 689.949,386.907 691.115,385.574 692.5,384.5 Z"/></g>
<g><path style="opacity:1" fill="#f49f3e" d="M 665.5,407.5 C 670.088,407.296 673.755,408.963 676.5,412.5C 677.316,418.966 679.316,424.966 682.5,430.5C 659.291,519.695 675.791,601.028 732,674.5C 737.699,681.03 743.533,687.363 749.5,693.5C 745.346,700.329 739.346,704.329 731.5,705.5C 730.504,705.586 729.671,705.252 729,704.5C 722.333,696.5 715.667,688.5 709,680.5C 649.708,596.745 635.208,505.745 665.5,407.5 Z"/></g>
<g><path style="opacity:1" fill="#f8d532" d="M 937.5,413.5 C 982.763,411.989 1013.93,431.989 1031,473.5C 1042.86,519.239 1029.03,554.739 989.5,580C 949.015,598.503 912.848,592.336 881,561.5C 858.111,533.625 852.777,502.625 865,468.5C 879.372,437.233 903.538,418.9 937.5,413.5 Z"/></g>
<g><path style="opacity:1" fill="#f8d830" d="M 935.5,423.5 C 968.174,420.431 994.007,432.098 1013,458.5C 1026.9,482.016 1029.23,506.683 1020,532.5C 1001.21,569.812 971.045,585.312 929.5,579C 895.813,569.647 875.647,547.814 869,513.5C 866.644,465.161 888.811,435.161 935.5,423.5 Z"/></g>
<g><path style="opacity:1" fill="#f16833" d="M 718.5,429.5 C 719.74,433.651 721.74,437.317 724.5,440.5C 726.5,443.5 728.5,446.5 730.5,449.5C 725.881,454.704 722.214,460.704 719.5,467.5C 719.863,468.183 720.196,468.85 720.5,469.5C 719.833,469.5 719.167,469.5 718.5,469.5C 717.469,468.751 716.302,468.085 715,467.5C 714.83,459.214 710.997,454.214 703.5,452.5C 707.716,443.067 712.216,433.733 717,424.5C 717.198,426.382 717.698,428.048 718.5,429.5 Z"/></g>
<g><path style="opacity:1" fill="#f8dd2e" d="M 937.5,435.5 C 977.952,433.809 1003.12,452.475 1013,491.5C 1015.98,526.489 1001.48,550.989 969.5,565C 940.912,573.562 916.412,567.062 896,545.5C 876.51,518.522 875.51,490.855 893,462.5C 904.513,447.995 919.347,438.995 937.5,435.5 Z"/></g>
<g><path style="opacity:1" fill="#f5a53e" d="M 682.5,430.5 C 688.804,437.808 695.138,445.141 701.5,452.5C 686.618,531.974 704.785,602.974 756,665.5C 757.667,667.167 759.333,668.833 761,670.5C 761.399,670.272 761.565,669.938 761.5,669.5C 763.737,671.647 765.737,673.98 767.5,676.5C 768.285,682.852 766.952,688.686 763.5,694C 761.866,694.494 760.199,694.66 758.5,694.5C 755.83,691.081 752.83,690.748 749.5,693.5C 743.533,687.363 737.699,681.03 732,674.5C 675.791,601.028 659.291,519.695 682.5,430.5 Z"/></g>
<g><path style="opacity:1" fill="#f5ab3d" d="M 701.5,452.5 C 702.167,452.5 702.833,452.5 703.5,452.5C 710.997,454.214 714.83,459.214 715,467.5C 716.302,468.085 717.469,468.751 718.5,469.5C 709.774,530.265 722.94,585.932 758,636.5C 761.398,641.354 765.231,645.687 769.5,649.5C 768.143,655.032 765.31,659.699 761,663.5C 760.51,665.545 760.677,667.545 761.5,669.5C 761.565,669.938 761.399,670.272 761,670.5C 759.333,668.833 757.667,667.167 756,665.5C 704.785,602.974 686.618,531.974 701.5,452.5 Z"/></g>
<g><path style="opacity:1" fill="#f8e22c" d="M 942.5,454.5 C 970.929,454.768 988.096,468.768 994,496.5C 994.756,525.07 981.256,542.57 953.5,549C 924.022,550.19 906.189,536.357 900,507.5C 899.623,478.054 913.789,460.388 942.5,454.5 Z"/></g>
<g><path style="opacity:1" fill="#f05b34" d="M 730.5,449.5 C 734.539,454.688 739.539,458.688 745.5,461.5C 747.451,464.959 748.951,468.626 750,472.5C 755.369,478.036 760.869,483.37 766.5,488.5C 768.5,490.833 770.5,493.167 772.5,495.5C 771.624,495.369 770.957,495.702 770.5,496.5C 767.667,502.167 764.833,507.833 762,513.5C 761.502,516.817 761.335,520.15 761.5,523.5C 759.712,523.215 758.045,523.548 756.5,524.5C 754.594,527.64 753.26,530.973 752.5,534.5C 751.778,534.082 751.278,533.416 751,532.5C 750.502,529.183 750.335,525.85 750.5,522.5C 753.833,522.5 757.167,522.5 760.5,522.5C 760.664,519.813 760.497,517.146 760,514.5C 756.553,511.962 752.72,510.295 748.5,509.5C 748.5,507.167 748.5,504.833 748.5,502.5C 746.5,502.5 744.5,502.5 742.5,502.5C 739.383,499.641 736.716,496.308 734.5,492.5C 731.26,492.024 727.927,492.024 724.5,492.5C 724.662,490.473 724.495,488.473 724,486.5C 722.302,485.471 721.468,483.971 721.5,482C 721.998,479.523 722.331,477.023 722.5,474.5C 722.444,472.36 721.777,470.694 720.5,469.5C 720.196,468.85 719.863,468.183 719.5,467.5C 722.214,460.704 725.881,454.704 730.5,449.5 Z"/></g>
<g><path style="opacity:1" fill="#f7e52a" d="M 940.5,464.5 C 963.577,463.108 978.077,473.442 984,495.5C 985.969,518.075 976.136,532.575 954.5,539C 930.986,541.337 916.153,531.17 910,508.5C 908.294,485.404 918.461,470.737 940.5,464.5 Z"/></g>
<g><path style="opacity:1" fill="#f6b03c" d="M 718.5,469.5 C 719.167,469.5 719.833,469.5 720.5,469.5C 721.777,470.694 722.444,472.36 722.5,474.5C 722.331,477.023 721.998,479.523 721.5,482C 721.468,483.971 722.302,485.471 724,486.5C 724.495,488.473 724.662,490.473 724.5,492.5C 727.927,492.024 731.26,492.024 734.5,492.5C 736.716,496.308 739.383,499.641 742.5,502.5C 742.278,533.724 748.945,563.391 762.5,591.5C 762.957,592.298 763.624,592.631 764.5,592.5C 761.679,597.473 758.845,602.473 756,607.5C 755.505,609.473 755.338,611.473 755.5,613.5C 757.167,613.5 758.833,613.5 760.5,613.5C 760.301,616.941 760.801,620.274 762,623.5C 764.333,627.5 766.667,631.5 769,635.5C 769.499,640.155 769.666,644.821 769.5,649.5C 765.231,645.687 761.398,641.354 758,636.5C 722.94,585.932 709.774,530.265 718.5,469.5 Z"/></g>
<g><path style="opacity:1" fill="#f7ea27" d="M 940.5,479.5 C 957.816,477.323 967.816,484.823 970.5,502C 968.667,515.833 960.833,523.667 947,525.5C 927.045,521.246 920.379,509.58 927,490.5C 930.336,485.269 934.836,481.602 940.5,479.5 Z"/></g>
<g><path style="opacity:1" fill="#f6b63a" d="M 742.5,502.5 C 744.5,502.5 746.5,502.5 748.5,502.5C 748.5,504.833 748.5,507.167 748.5,509.5C 752.72,510.295 756.553,511.962 760,514.5C 760.497,517.146 760.664,519.813 760.5,522.5C 757.167,522.5 753.833,522.5 750.5,522.5C 750.335,525.85 750.502,529.183 751,532.5C 751.278,533.416 751.778,534.082 752.5,534.5C 758.522,540.357 764.689,546.024 771,551.5C 771.667,555.167 771.667,558.833 771,562.5C 769.622,564.213 767.955,565.547 766,566.5C 765.833,567.333 765.667,568.167 765.5,569C 768.381,577.05 768.048,584.883 764.5,592.5C 763.624,592.631 762.957,592.298 762.5,591.5C 748.945,563.391 742.278,533.724 742.5,502.5 Z"/></g>
<g><path style="opacity:1" fill="#ee4a34" d="M 772.5,495.5 C 775.243,498.536 778.576,500.536 782.5,501.5C 782.5,500.167 782.5,498.833 782.5,497.5C 784.947,497.615 786.947,498.615 788.5,500.5C 790.313,503.647 792.98,505.647 796.5,506.5C 798.5,506.5 800.5,506.5 802.5,506.5C 802.065,513.33 802.731,519.996 804.5,526.5C 789.07,555.025 774.404,584.025 760.5,613.5C 758.833,613.5 757.167,613.5 755.5,613.5C 755.338,611.473 755.505,609.473 756,607.5C 758.845,602.473 761.679,597.473 764.5,592.5C 768.048,584.883 768.381,577.05 765.5,569C 765.667,568.167 765.833,567.333 766,566.5C 767.955,565.547 769.622,564.213 771,562.5C 771.667,558.833 771.667,555.167 771,551.5C 764.689,546.024 758.522,540.357 752.5,534.5C 753.26,530.973 754.594,527.64 756.5,524.5C 758.045,523.548 759.712,523.215 761.5,523.5C 761.335,520.15 761.502,516.817 762,513.5C 764.833,507.833 767.667,502.167 770.5,496.5C 770.957,495.702 771.624,495.369 772.5,495.5 Z"/></g>
<g><path style="opacity:1" fill="#ee3e35" d="M 804.5,526.5 C 806.994,533.99 811.66,539.657 818.5,543.5C 826.01,542.679 829.677,546.012 829.5,553.5C 808.07,594.026 787.403,635.026 767.5,676.5C 765.737,673.98 763.737,671.647 761.5,669.5C 760.677,667.545 760.51,665.545 761,663.5C 765.31,659.699 768.143,655.032 769.5,649.5C 769.666,644.821 769.499,640.155 769,635.5C 766.667,631.5 764.333,627.5 762,623.5C 760.801,620.274 760.301,616.941 760.5,613.5C 774.404,584.025 789.07,555.025 804.5,526.5 Z"/></g>
<g><path style="opacity:1" fill="#ed3435" d="M 829.5,553.5 C 830.664,559.813 831.83,566.147 833,572.5C 833.24,574.852 834.073,576.852 835.5,578.5C 835.756,581.598 836.422,584.598 837.5,587.5C 836.624,587.369 835.957,587.702 835.5,588.5C 802.628,653.745 769.628,718.911 736.5,784C 737.416,784.278 738.082,784.778 738.5,785.5C 735.421,785.196 732.587,784.196 730,782.5C 729.645,786.897 728.478,791.064 726.5,795C 727.223,797.553 728.556,799.72 730.5,801.5C 730.043,802.298 729.376,802.631 728.5,802.5C 723.295,804.114 722.295,807.114 725.5,811.5C 725.199,814.489 723.532,815.822 720.5,815.5C 720.848,819.085 720.181,822.418 718.5,825.5C 713.918,828.298 709.585,827.798 705.5,824C 703.332,821.002 700.999,818.169 698.5,815.5C 698.196,814.85 697.863,814.183 697.5,813.5C 717.608,773.616 737.941,733.949 758.5,694.5C 760.199,694.66 761.866,694.494 763.5,694C 766.952,688.686 768.285,682.852 767.5,676.5C 787.403,635.026 808.07,594.026 829.5,553.5 Z"/></g>
<g><path style="opacity:1" fill="#f7c437" d="M 835.5,578.5 C 853.177,602.662 876.177,619.828 904.5,630C 957.354,645.035 1003.69,633.869 1043.5,596.5C 1039.92,610.255 1035.92,623.921 1031.5,637.5C 977.996,667.406 923.996,668.573 869.5,641C 861.574,636.549 854.241,631.382 847.5,625.5C 848.075,621.845 847.075,618.845 844.5,616.5C 844.026,606.407 841.693,596.74 837.5,587.5C 836.422,584.598 835.756,581.598 835.5,578.5 Z"/></g>
<g><path style="opacity:1" fill="#ed2e36" d="M 837.5,587.5 C 841.693,596.74 844.026,606.407 844.5,616.5C 841.108,621.605 837.941,626.938 835,632.5C 810.036,682.092 785.536,731.426 761.5,780.5C 757.088,783.527 752.088,785.193 746.5,785.5C 743.833,785.5 741.167,785.5 738.5,785.5C 738.082,784.778 737.416,784.278 736.5,784C 769.628,718.911 802.628,653.745 835.5,588.5C 835.957,587.702 836.624,587.369 837.5,587.5 Z"/></g>
<g><path style="opacity:1" fill="#f7be39" d="M 847.5,625.5 C 854.241,631.382 861.574,636.549 869.5,641C 923.996,668.573 977.996,667.406 1031.5,637.5C 1027.44,647.948 1023.11,658.282 1018.5,668.5C 961.66,690.53 906.66,686.696 853.5,657C 852.915,655.698 852.249,654.531 851.5,653.5C 849.762,649.69 847.762,646.024 845.5,642.5C 845.703,640.792 846.536,639.459 848,638.5C 848.5,635.162 847,633.495 843.5,633.5C 842.951,629.774 844.285,627.107 847.5,625.5 Z"/></g>
<g><path style="opacity:1" fill="#ed2836" d="M 844.5,616.5 C 847.075,618.845 848.075,621.845 847.5,625.5C 844.285,627.107 842.951,629.774 843.5,633.5C 847,633.495 848.5,635.162 848,638.5C 846.536,639.459 845.703,640.792 845.5,642.5C 847.762,646.024 849.762,649.69 851.5,653.5C 850.865,656.493 850.699,659.493 851,662.5C 853.643,663.976 855.81,665.976 857.5,668.5C 853.57,672.147 852.57,676.48 854.5,681.5C 851.962,680.323 849.629,678.656 847.5,676.5C 846.081,677.005 845.415,678.005 845.5,679.5C 844.903,679.735 844.57,680.235 844.5,681C 846.593,684.351 848.26,687.851 849.5,691.5C 847.167,690.833 844.833,690.167 842.5,689.5C 843.331,696.131 843.664,702.798 843.5,709.5C 843.763,714.053 844.429,718.553 845.5,723C 845.032,726.415 843.032,728.248 839.5,728.5C 834.494,731.316 831.994,735.649 832,741.5C 831.329,742.252 830.496,742.586 829.5,742.5C 827.345,742.372 825.345,742.872 823.5,744C 822.415,746.172 821.081,748.172 819.5,750C 812.59,752.958 805.924,756.124 799.5,759.5C 796.404,760.547 793.404,761.88 790.5,763.5C 789.534,765.396 789.201,767.396 789.5,769.5C 786.428,769.183 783.428,769.516 780.5,770.5C 779.479,773.175 777.813,775.175 775.5,776.5C 773.473,776.338 771.473,776.505 769.5,777C 766.929,778.454 764.262,779.62 761.5,780.5C 785.536,731.426 810.036,682.092 835,632.5C 837.941,626.938 841.108,621.605 844.5,616.5 Z"/></g>
<g><path style="opacity:1" fill="#f6b83a" d="M 851.5,653.5 C 852.249,654.531 852.915,655.698 853.5,657C 906.66,686.696 961.66,690.53 1018.5,668.5C 1013.34,679.484 1007.68,690.15 1001.5,700.5C 958.522,711.068 916.189,708.902 874.5,694C 864.215,690.191 854.548,685.357 845.5,679.5C 845.415,678.005 846.081,677.005 847.5,676.5C 849.629,678.656 851.962,680.323 854.5,681.5C 852.57,676.48 853.57,672.147 857.5,668.5C 855.81,665.976 853.643,663.976 851,662.5C 850.699,659.493 850.865,656.493 851.5,653.5 Z"/></g>
<g><path style="opacity:1" fill="#f6b13c" d="M 845.5,679.5 C 854.548,685.357 864.215,690.191 874.5,694C 916.189,708.902 958.522,711.068 1001.5,700.5C 995.581,711.344 988.914,721.677 981.5,731.5C 933.235,738.011 887.235,730.678 843.5,709.5C 843.664,702.798 843.331,696.131 842.5,689.5C 844.833,690.167 847.167,690.833 849.5,691.5C 848.26,687.851 846.593,684.351 844.5,681C 844.57,680.235 844.903,679.735 845.5,679.5 Z"/></g>
<g><path style="opacity:1" fill="#ed3b35" d="M 758.5,694.5 C 737.941,733.949 717.608,773.616 697.5,813.5C 697.863,814.183 698.196,814.85 698.5,815.5C 697.624,815.369 696.957,815.702 696.5,816.5C 700.433,822.192 703.1,828.359 704.5,835C 705.043,838.597 703.709,841.097 700.5,842.5C 696.781,842.002 693.447,842.836 690.5,845C 685.833,845.333 681.167,845.667 676.5,846C 674.676,846.66 673.343,847.827 672.5,849.5C 665.898,855.027 661.564,862.027 659.5,870.5C 654.836,871.832 650.169,873.165 645.5,874.5C 673.247,818.673 701.247,763.007 729.5,707.5C 730.167,706.833 730.833,706.167 731.5,705.5C 739.346,704.329 745.346,700.329 749.5,693.5C 752.83,690.748 755.83,691.081 758.5,694.5 Z"/></g>
<g><path style="opacity:1" fill="#f5ab3d" d="M 843.5,709.5 C 887.235,730.678 933.235,738.011 981.5,731.5C 976.182,738.814 970.516,745.814 964.5,752.5C 920.592,755.517 878.925,747.517 839.5,728.5C 843.032,728.248 845.032,726.415 845.5,723C 844.429,718.553 843.763,714.053 843.5,709.5 Z"/></g>
<g><path style="opacity:1" fill="#f5a63e" d="M 839.5,728.5 C 878.925,747.517 920.592,755.517 964.5,752.5C 959.509,758.823 954.176,764.823 948.5,770.5C 906.507,770.416 866.84,761.083 829.5,742.5C 830.496,742.586 831.329,742.252 832,741.5C 831.994,735.649 834.494,731.316 839.5,728.5 Z"/></g>
<g><path style="opacity:1" fill="#f5a03e" d="M 829.5,742.5 C 866.84,761.083 906.507,770.416 948.5,770.5C 939.161,779.839 929.494,788.839 919.5,797.5C 876.445,794.077 836.445,781.41 799.5,759.5C 805.924,756.124 812.59,752.958 819.5,750C 821.081,748.172 822.415,746.172 823.5,744C 825.345,742.872 827.345,742.372 829.5,742.5 Z"/></g>
<g><path style="opacity:1" fill="#ee4934" d="M 686.5,761.5 C 685.624,761.369 684.957,761.702 684.5,762.5C 670.314,791.54 655.648,820.207 640.5,848.5C 640.222,839.447 640.556,830.447 641.5,821.5C 641.31,816.247 643.476,812.247 648,809.5C 648.667,808.167 648.667,806.833 648,805.5C 644.947,803.57 642.447,801.07 640.5,798C 638.866,797.506 637.199,797.34 635.5,797.5C 635.5,798.5 635.5,799.5 635.5,800.5C 633.801,800.66 632.134,800.494 630.5,800C 623.171,792.273 623.838,785.773 632.5,780.5C 637.463,779.746 642.463,779.413 647.5,779.5C 647.491,777.692 647.991,776.025 649,774.5C 651.04,772.63 652.873,770.63 654.5,768.5C 653.079,762.887 655.079,760.72 660.5,762C 661.777,763.786 663.444,764.952 665.5,765.5C 669.701,763.906 673.368,761.572 676.5,758.5C 680.705,756.717 684.038,757.717 686.5,761.5 Z"/></g>
<g><path style="opacity:1" fill="#f39940" d="M 799.5,759.5 C 836.445,781.41 876.445,794.077 919.5,797.5C 909.71,805.895 899.377,813.562 888.5,820.5C 847.784,813.269 810.118,798.602 775.5,776.5C 777.813,775.175 779.479,773.175 780.5,770.5C 783.428,769.516 786.428,769.183 789.5,769.5C 789.201,767.396 789.534,765.396 790.5,763.5C 793.404,761.88 796.404,760.547 799.5,759.5 Z"/></g>
<g><path style="opacity:1" fill="#ee4235" d="M 729.5,707.5 C 701.247,763.007 673.247,818.673 645.5,874.5C 642.15,874.665 638.817,874.498 635.5,874C 634.692,873.692 634.025,873.192 633.5,872.5C 636.202,870.058 639.035,867.724 642,865.5C 642.5,864.5 643,863.5 643.5,862.5C 640.739,858.695 639.739,854.361 640.5,849.5C 640.5,849.167 640.5,848.833 640.5,848.5C 655.648,820.207 670.314,791.54 684.5,762.5C 684.957,761.702 685.624,761.369 686.5,761.5C 689.984,765.132 694.317,766.465 699.5,765.5C 699.5,760.5 699.5,755.5 699.5,750.5C 695.184,750.172 691.184,748.839 687.5,746.5C 686.672,741.868 686.172,737.202 686,732.5C 683.466,730.431 682.299,727.765 682.5,724.5C 685.518,724.665 688.518,724.498 691.5,724C 693.641,720.68 696.641,718.846 700.5,718.5C 700.5,720.167 700.5,721.833 700.5,723.5C 704.042,723.813 707.375,723.479 710.5,722.5C 712.144,722.714 713.644,722.38 715,721.5C 715.499,717.179 715.666,712.846 715.5,708.5C 720.23,708.717 724.897,708.383 729.5,707.5 Z"/></g>
<g><path style="opacity:1" fill="#f39240" d="M 775.5,776.5 C 810.118,798.602 847.784,813.269 888.5,820.5C 879.373,827.237 869.706,833.237 859.5,838.5C 819.725,828.777 783.059,812.277 749.5,789C 747.937,788.241 746.937,787.074 746.5,785.5C 752.088,785.193 757.088,783.527 761.5,780.5C 764.262,779.62 766.929,778.454 769.5,777C 771.473,776.505 773.473,776.338 775.5,776.5 Z"/></g>
<g><path style="opacity:1" fill="#f28c40" d="M 738.5,785.5 C 741.167,785.5 743.833,785.5 746.5,785.5C 746.937,787.074 747.937,788.241 749.5,789C 783.059,812.277 819.725,828.777 859.5,838.5C 848.719,844.889 837.386,850.223 825.5,854.5C 792.095,842.298 760.762,826.131 731.5,806C 729.937,805.241 728.937,804.074 728.5,802.5C 729.376,802.631 730.043,802.298 730.5,801.5C 728.556,799.72 727.223,797.553 726.5,795C 728.478,791.064 729.645,786.897 730,782.5C 732.587,784.196 735.421,785.196 738.5,785.5 Z"/></g>
<g><path style="opacity:1" fill="#f28641" d="M 728.5,802.5 C 728.937,804.074 729.937,805.241 731.5,806C 760.762,826.131 792.095,842.298 825.5,854.5C 814.613,859.734 803.28,864.067 791.5,867.5C 765.435,856.307 741.102,842.307 718.5,825.5C 720.181,822.418 720.848,819.085 720.5,815.5C 723.532,815.822 725.199,814.489 725.5,811.5C 722.295,807.114 723.295,804.114 728.5,802.5 Z"/></g>
<g><path style="opacity:1" fill="#f17f41" d="M 698.5,815.5 C 700.999,818.169 703.332,821.002 705.5,824C 709.585,827.798 713.918,828.298 718.5,825.5C 741.102,842.307 765.435,856.307 791.5,867.5C 780.148,871.588 768.481,874.588 756.5,876.5C 744.963,871.731 733.963,865.897 723.5,859C 715.414,853.969 707.747,848.469 700.5,842.5C 703.709,841.097 705.043,838.597 704.5,835C 703.1,828.359 700.433,822.192 696.5,816.5C 696.957,815.702 697.624,815.369 698.5,815.5 Z"/></g>
<g><path style="opacity:1" fill="#f17941" d="M 700.5,842.5 C 707.747,848.469 715.414,853.969 723.5,859C 733.963,865.897 744.963,871.731 756.5,876.5C 744.414,879.224 732.081,881.224 719.5,882.5C 703.346,872.251 687.679,861.251 672.5,849.5C 673.343,847.827 674.676,846.66 676.5,846C 681.167,845.667 685.833,845.333 690.5,845C 693.447,842.836 696.781,842.002 700.5,842.5 Z"/></g>
<g><path style="opacity:1" fill="#f17341" d="M 672.5,849.5 C 687.679,861.251 703.346,872.251 719.5,882.5C 705.892,884.152 692.226,884.819 678.5,884.5C 672.19,879.865 665.857,875.198 659.5,870.5C 661.564,862.027 665.898,855.027 672.5,849.5 Z"/></g>
<g><path style="opacity:1" fill="#f6c2af" d="M 340.5,1095.5 C 340.5,1108.17 340.5,1120.83 340.5,1133.5C 341.5,1133.5 342.5,1133.5 343.5,1133.5C 342.432,1134.43 341.099,1134.77 339.5,1134.5C 339.171,1121.32 339.505,1108.32 340.5,1095.5 Z"/></g>
<g><path style="opacity:1" fill="#fefefe" d="M 340.5,1095.5 C 341.675,1095.28 342.675,1095.61 343.5,1096.5C 344.253,1098.75 345.586,1100.59 347.5,1102C 386.833,1102.67 426.167,1102.67 465.5,1102C 467.414,1100.59 468.747,1098.75 469.5,1096.5C 470.325,1095.61 471.325,1095.28 472.5,1095.5C 472.5,1108.17 472.5,1120.83 472.5,1133.5C 471.5,1133.5 470.5,1133.5 469.5,1133.5C 469.129,1129.8 467.129,1127.8 463.5,1127.5C 449.343,1126.5 435.01,1126.17 420.5,1126.5C 420.168,1165.34 420.501,1204 421.5,1242.5C 422.423,1245.26 424.256,1247.26 427,1248.5C 427.49,1249.79 427.657,1251.13 427.5,1252.5C 413.5,1252.5 399.5,1252.5 385.5,1252.5C 385.343,1251.13 385.51,1249.79 386,1248.5C 389.085,1247.58 390.918,1245.58 391.5,1242.5C 392.499,1204 392.832,1165.34 392.5,1126.5C 377.99,1126.17 363.657,1126.5 349.5,1127.5C 345.871,1127.8 343.871,1129.8 343.5,1133.5C 342.5,1133.5 341.5,1133.5 340.5,1133.5C 340.5,1120.83 340.5,1108.17 340.5,1095.5 Z"/></g>
<g><path style="opacity:1" fill="#f6c2af" d="M 472.5,1095.5 C 473.495,1108.32 473.829,1121.32 473.5,1134.5C 471.901,1134.77 470.568,1134.43 469.5,1133.5C 470.5,1133.5 471.5,1133.5 472.5,1133.5C 472.5,1120.83 472.5,1108.17 472.5,1095.5 Z"/></g>
<g><path style="opacity:1" fill="#fefefe" d="M 607.5,1095.5 C 608.5,1095.5 609.5,1095.5 610.5,1095.5C 610.5,1108.17 610.5,1120.83 610.5,1133.5C 609.5,1133.5 608.5,1133.5 607.5,1133.5C 607.129,1129.8 605.129,1127.8 601.5,1127.5C 573.338,1126.5 545.005,1126.17 516.5,1126.5C 516.172,1138.68 516.505,1150.68 517.5,1162.5C 536.503,1162.67 555.503,1162.5 574.5,1162C 576.451,1160.27 577.451,1158.1 577.5,1155.5C 578.833,1155.5 580.167,1155.5 581.5,1155.5C 581.5,1168.17 581.5,1180.83 581.5,1193.5C 580.167,1193.5 578.833,1193.5 577.5,1193.5C 578.026,1190.19 576.693,1188.03 573.5,1187C 554.836,1186.5 536.17,1186.33 517.5,1186.5C 516.504,1199.99 516.171,1213.66 516.5,1227.5C 546.338,1227.83 576.005,1227.5 605.5,1226.5C 608.292,1225.61 609.625,1223.61 609.5,1220.5C 610.5,1220.5 611.5,1220.5 612.5,1220.5C 612.5,1233.17 612.5,1245.83 612.5,1258.5C 611.5,1258.5 610.5,1258.5 609.5,1258.5C 609.288,1255.29 607.621,1253.29 604.5,1252.5C 563.67,1251.5 522.67,1251.17 481.5,1251.5C 481.5,1250.5 481.5,1249.5 481.5,1248.5C 484.112,1247.72 485.945,1246.06 487,1243.5C 487.667,1199.17 487.667,1154.83 487,1110.5C 486.241,1108.37 484.741,1107.03 482.5,1106.5C 481.571,1105.31 481.238,1103.98 481.5,1102.5C 522.168,1102.67 562.835,1102.5 603.5,1102C 605.734,1100.36 607.067,1098.2 607.5,1095.5 Z"/></g>
<g><path style="opacity:1" fill="#ee9379" d="M 607.5,1095.5 C 608.568,1094.57 609.901,1094.23 611.5,1094.5C 611.5,1107.83 611.5,1121.17 611.5,1134.5C 609.901,1134.77 608.568,1134.43 607.5,1133.5C 608.5,1133.5 609.5,1133.5 610.5,1133.5C 610.5,1120.83 610.5,1108.17 610.5,1095.5C 609.5,1095.5 608.5,1095.5 607.5,1095.5 Z"/></g>
<g><path style="opacity:1" fill="#fefdfc" d="M 828.5,1099.5 C 844.247,1098.19 859.58,1100.03 874.5,1105C 885.315,1109.9 895.648,1115.57 905.5,1122C 908.14,1122.84 910.473,1122.34 912.5,1120.5C 913.72,1120.89 914.387,1121.72 914.5,1123C 908.717,1133.4 902.55,1143.57 896,1153.5C 895.586,1153.04 895.086,1152.71 894.5,1152.5C 894.506,1147.35 892.506,1143.18 888.5,1140C 869.461,1125.86 848.461,1121.86 825.5,1128C 808.469,1135.03 797.969,1147.53 794,1165.5C 790.072,1189.01 797.572,1207.84 816.5,1222C 832.207,1230.29 848.54,1231.62 865.5,1226C 875.665,1223 884.499,1217.84 892,1210.5C 893.092,1207.96 893.759,1205.29 894,1202.5C 894.667,1201.83 895.333,1201.17 896,1200.5C 902.251,1210 908.251,1219.67 914,1229.5C 914.684,1230.78 914.517,1231.95 913.5,1233C 911.086,1231.79 908.419,1231.46 905.5,1232C 893.718,1240.23 881.052,1246.89 867.5,1252C 849.401,1255.52 831.401,1255.19 813.5,1251C 784.795,1240.47 768.295,1219.97 764,1189.5C 759.688,1160.99 767.855,1136.82 788.5,1117C 800.416,1107.76 813.75,1101.92 828.5,1099.5 Z"/></g>
<g><path style="opacity:1" fill="#fefdfc" d="M 987.5,1099.5 C 1003.65,1098.41 1019.32,1100.58 1034.5,1106C 1065.82,1123.13 1079.99,1149.63 1077,1185.5C 1074.23,1214.9 1059.73,1236.06 1033.5,1249C 1013.05,1255.54 992.382,1256.21 971.5,1251C 947.149,1240.97 931.649,1223.14 925,1197.5C 919.048,1169.25 925.048,1143.91 943,1121.5C 955.572,1109.46 970.406,1102.13 987.5,1099.5 Z"/></g>
<g><path style="opacity:1" fill="#fefefe" d="M 236.5,1251.5 C 202.167,1251.5 167.833,1251.5 133.5,1251.5C 133.5,1250.5 133.5,1249.5 133.5,1248.5C 135.735,1247.77 137.568,1246.44 139,1244.5C 139.667,1199.83 139.667,1155.17 139,1110.5C 137.807,1108.39 136.14,1106.73 134,1105.5C 133.517,1104.55 133.351,1103.55 133.5,1102.5C 168.835,1102.33 204.168,1102.5 239.5,1103C 255.255,1105.42 265.421,1114.26 270,1129.5C 270.667,1137.17 270.667,1144.83 270,1152.5C 267.281,1161.37 262.114,1168.37 254.5,1173.5C 273.408,1184.7 279.908,1201.03 274,1222.5C 267.925,1240.46 255.425,1250.12 236.5,1251.5 Z"/></g>
<g><path style="opacity:1" fill="#fefefe" d="M 331.5,1248.5 C 331.5,1249.5 331.5,1250.5 331.5,1251.5C 317.833,1251.5 304.167,1251.5 290.5,1251.5C 290.5,1250.5 290.5,1249.5 290.5,1248.5C 292.735,1247.77 294.568,1246.44 296,1244.5C 296.667,1199.83 296.667,1155.17 296,1110.5C 295.241,1108.37 293.741,1107.03 291.5,1106.5C 290.571,1105.31 290.238,1103.98 290.5,1102.5C 304.5,1102.5 318.5,1102.5 332.5,1102.5C 332.649,1103.55 332.483,1104.55 332,1105.5C 329.365,1106.47 327.365,1108.14 326,1110.5C 325.333,1154.83 325.333,1199.17 326,1243.5C 327.055,1246.06 328.888,1247.72 331.5,1248.5 Z"/></g>
<g><path style="opacity:1" fill="#fefdfd" d="M 767.5,1251.5 C 749.833,1251.5 732.167,1251.5 714.5,1251.5C 714.5,1250.5 714.5,1249.5 714.5,1248.5C 719.078,1247.12 720.578,1244.12 719,1239.5C 710.313,1226.11 701.146,1213.11 691.5,1200.5C 681.452,1213.06 671.952,1226.06 663,1239.5C 661.391,1244.71 663.224,1247.71 668.5,1248.5C 668.5,1249.5 668.5,1250.5 668.5,1251.5C 651.5,1251.5 634.5,1251.5 617.5,1251.5C 617.5,1250.5 617.5,1249.5 617.5,1248.5C 621.883,1247.64 625.383,1245.3 628,1241.5C 643.903,1219.93 659.403,1198.1 674.5,1176C 659.579,1152.83 643.913,1130.16 627.5,1108C 625.5,1107.33 623.5,1106.67 621.5,1106C 620.663,1104.99 620.33,1103.82 620.5,1102.5C 638.167,1102.5 655.833,1102.5 673.5,1102.5C 673.762,1103.98 673.429,1105.31 672.5,1106.5C 668.83,1108.47 667.663,1111.47 669,1115.5C 676.609,1127.44 684.609,1139.11 693,1150.5C 702.405,1138.69 711.072,1126.36 719,1113.5C 719.539,1108.87 717.372,1106.53 712.5,1106.5C 712.5,1105.17 712.5,1103.83 712.5,1102.5C 729.833,1102.5 747.167,1102.5 764.5,1102.5C 764.719,1103.68 764.386,1104.68 763.5,1105.5C 760.57,1106.55 758.07,1108.21 756,1110.5C 740.693,1131.97 725.193,1153.31 709.5,1174.5C 725.886,1198.77 742.886,1222.61 760.5,1246C 762.65,1247.41 764.984,1248.24 767.5,1248.5C 767.5,1249.5 767.5,1250.5 767.5,1251.5 Z"/></g>
<g><path style="opacity:1" fill="#df2529" d="M 989.5,1125.5 C 1029.69,1124.52 1048.85,1144.19 1047,1184.5C 1040.2,1219.3 1019.37,1233.47 984.5,1227C 963.101,1217.05 952.767,1200.21 953.5,1176.5C 953.472,1150.85 965.472,1133.85 989.5,1125.5 Z"/></g>
<g><path style="opacity:1" fill="#f2a48c" d="M 225.5,1127.5 C 206.833,1127.5 188.167,1127.5 169.5,1127.5C 169.5,1138.83 169.5,1150.17 169.5,1161.5C 187.833,1161.5 206.167,1161.5 224.5,1161.5C 206.007,1162.5 187.341,1162.83 168.5,1162.5C 168.5,1150.5 168.5,1138.5 168.5,1126.5C 187.674,1126.17 206.674,1126.5 225.5,1127.5 Z"/></g>
<g><path style="opacity:1" fill="#df2429" d="M 225.5,1127.5 C 236.344,1128.01 241.677,1133.68 241.5,1144.5C 241.61,1155.72 235.943,1161.39 224.5,1161.5C 206.167,1161.5 187.833,1161.5 169.5,1161.5C 169.5,1150.17 169.5,1138.83 169.5,1127.5C 188.167,1127.5 206.833,1127.5 225.5,1127.5 Z"/></g>
<g><path style="opacity:1" fill="#f6bda9" d="M 349.5,1127.5 C 363.657,1126.5 377.99,1126.17 392.5,1126.5C 392.832,1165.34 392.499,1204 391.5,1242.5C 391.5,1204.17 391.5,1165.83 391.5,1127.5C 377.5,1127.5 363.5,1127.5 349.5,1127.5 Z"/></g>
<g><path style="opacity:1" fill="#f6bda9" d="M 463.5,1127.5 C 449.5,1127.5 435.5,1127.5 421.5,1127.5C 421.5,1165.83 421.5,1204.17 421.5,1242.5C 420.501,1204 420.168,1165.34 420.5,1126.5C 435.01,1126.17 449.343,1126.5 463.5,1127.5 Z"/></g>
<g><path style="opacity:1" fill="#eb7a5f" d="M 601.5,1127.5 C 573.5,1127.5 545.5,1127.5 517.5,1127.5C 517.5,1139.17 517.5,1150.83 517.5,1162.5C 516.505,1150.68 516.172,1138.68 516.5,1126.5C 545.005,1126.17 573.338,1126.5 601.5,1127.5 Z"/></g>
<g><path style="opacity:1" fill="#eb7e63" d="M 226.5,1187.5 C 207.5,1187.5 188.5,1187.5 169.5,1187.5C 169.5,1200.5 169.5,1213.5 169.5,1226.5C 188.5,1226.5 207.5,1226.5 226.5,1226.5C 207.341,1227.5 188.007,1227.83 168.5,1227.5C 168.5,1213.83 168.5,1200.17 168.5,1186.5C 188.007,1186.17 207.341,1186.5 226.5,1187.5 Z"/></g>
<g><path style="opacity:1" fill="#df2429" d="M 226.5,1187.5 C 241.39,1189.25 247.556,1197.59 245,1212.5C 242.426,1221.87 236.259,1226.54 226.5,1226.5C 207.5,1226.5 188.5,1226.5 169.5,1226.5C 169.5,1213.5 169.5,1200.5 169.5,1187.5C 188.5,1187.5 207.5,1187.5 226.5,1187.5 Z"/></g>
<g><path style="opacity:1" fill="#f6c6b4" d="M 612.5,1220.5 C 613.495,1233.32 613.829,1246.32 613.5,1259.5C 611.901,1259.77 610.568,1259.43 609.5,1258.5C 610.5,1258.5 611.5,1258.5 612.5,1258.5C 612.5,1245.83 612.5,1233.17 612.5,1220.5 Z"/></g>
<g><path style="opacity:1" fill="#e7664d" d="M 517.5,1186.5 C 517.5,1199.83 517.5,1213.17 517.5,1226.5C 546.833,1226.5 576.167,1226.5 605.5,1226.5C 576.005,1227.5 546.338,1227.83 516.5,1227.5C 516.171,1213.66 516.504,1199.99 517.5,1186.5 Z"/></g>
<g><path style="opacity:1" fill="#f6c2af" d="M 133.5,1248.5 C 133.5,1249.5 133.5,1250.5 133.5,1251.5C 167.833,1251.5 202.167,1251.5 236.5,1251.5C 202.004,1252.5 167.337,1252.83 132.5,1252.5C 132.232,1250.9 132.566,1249.57 133.5,1248.5 Z"/></g>
<g><path style="opacity:1" fill="#f6c3b0" d="M 290.5,1248.5 C 290.5,1249.5 290.5,1250.5 290.5,1251.5C 304.167,1251.5 317.833,1251.5 331.5,1251.5C 331.5,1250.5 331.5,1249.5 331.5,1248.5C 332.434,1249.57 332.768,1250.9 332.5,1252.5C 318.167,1252.5 303.833,1252.5 289.5,1252.5C 289.232,1250.9 289.566,1249.57 290.5,1248.5 Z"/></g>
<g><path style="opacity:1" fill="#f6c6b4" d="M 481.5,1248.5 C 481.5,1249.5 481.5,1250.5 481.5,1251.5C 522.67,1251.17 563.67,1251.5 604.5,1252.5C 563.167,1252.5 521.833,1252.5 480.5,1252.5C 480.232,1250.9 480.566,1249.57 481.5,1248.5 Z"/></g>
<g><path style="opacity:1" fill="#f6c1ad" d="M 617.5,1248.5 C 617.5,1249.5 617.5,1250.5 617.5,1251.5C 634.5,1251.5 651.5,1251.5 668.5,1251.5C 668.5,1250.5 668.5,1249.5 668.5,1248.5C 669.434,1249.57 669.768,1250.9 669.5,1252.5C 651.833,1252.5 634.167,1252.5 616.5,1252.5C 616.232,1250.9 616.566,1249.57 617.5,1248.5 Z"/></g>
<g><path style="opacity:1" fill="#f6c4b1" d="M 714.5,1248.5 C 714.5,1249.5 714.5,1250.5 714.5,1251.5C 732.167,1251.5 749.833,1251.5 767.5,1251.5C 749.674,1252.5 731.674,1252.83 713.5,1252.5C 713.232,1250.9 713.566,1249.57 714.5,1248.5 Z"/></g>
<g><path style="opacity:0.963" fill="#de2328" d="M 202.5,1367.5 C 224.301,1366.09 244.968,1370.26 264.5,1380C 267.516,1380.66 270.349,1380.16 273,1378.5C 274.5,1378.67 275.333,1379.5 275.5,1381C 270.752,1393.27 265.252,1405.11 259,1416.5C 258.228,1416.36 257.561,1416.02 257,1415.5C 255.747,1409.91 252.581,1405.74 247.5,1403C 225.125,1390.49 203.125,1390.82 181.5,1404C 164.576,1420.19 159.076,1439.69 165,1462.5C 173.565,1485.21 190.065,1496.88 214.5,1497.5C 228.324,1496.96 241.324,1493.46 253.5,1487C 254.478,1480.59 254.811,1474.09 254.5,1467.5C 242.495,1467.33 230.495,1467.5 218.5,1468C 216.549,1469.73 215.549,1471.9 215.5,1474.5C 213.833,1474.5 212.167,1474.5 210.5,1474.5C 210.5,1462.5 210.5,1450.5 210.5,1438.5C 212.288,1438.21 213.955,1438.55 215.5,1439.5C 216.234,1441.81 217.568,1443.65 219.5,1445C 241.497,1445.5 263.497,1445.67 285.5,1445.5C 285.5,1447.17 285.5,1448.83 285.5,1450.5C 282.708,1450.45 280.875,1451.79 280,1454.5C 279.333,1466.5 279.333,1478.5 280,1490.5C 281,1492.83 282.667,1494.5 285,1495.5C 285.667,1496.83 285.667,1498.17 285,1499.5C 254.101,1521.02 220.268,1527.85 183.5,1520C 155.269,1510.43 138.436,1490.93 133,1461.5C 126.78,1407.94 149.946,1376.61 202.5,1367.5 Z"/></g>
<g><path style="opacity:0.969" fill="#de2328" d="M 600.5,1367.5 C 637.891,1363.77 665.058,1378.44 682,1411.5C 695.194,1447.54 688.694,1479.37 662.5,1507C 643.459,1520.95 622.125,1526.28 598.5,1523C 564.255,1517.76 543.088,1498.26 535,1464.5C 528.457,1432.47 536.957,1405.3 560.5,1383C 572.561,1374.37 585.894,1369.21 600.5,1367.5 Z M 609.5,1393.5 C 640.323,1396.99 656.323,1414.33 657.5,1445.5C 657.476,1469.08 646.81,1485.58 625.5,1495C 587.361,1500.72 566.695,1484.22 563.5,1445.5C 564.01,1423.29 574.01,1407.12 593.5,1397C 598.871,1395.36 604.204,1394.2 609.5,1393.5 Z"/></g>
<g><path style="opacity:0.981" fill="#de2328" d="M 341.5,1370.5 C 375.835,1370.33 410.168,1370.5 444.5,1371C 469.925,1374.46 482.591,1389.12 482.5,1415C 482.228,1439.27 470.228,1453.94 446.5,1459C 458.003,1477.68 470.003,1496.01 482.5,1514C 484.65,1515.41 486.984,1516.24 489.5,1516.5C 489.5,1517.83 489.5,1519.17 489.5,1520.5C 473.167,1520.5 456.833,1520.5 440.5,1520.5C 439.923,1517.45 441.09,1515.45 444,1514.5C 444.667,1513.17 444.667,1511.83 444,1510.5C 434.084,1493.67 423.918,1477 413.5,1460.5C 401.852,1459.5 390.186,1459.17 378.5,1459.5C 378.333,1477.17 378.5,1494.84 379,1512.5C 380.378,1514.21 382.045,1515.55 384,1516.5C 384.49,1517.79 384.657,1519.13 384.5,1520.5C 370.167,1520.5 355.833,1520.5 341.5,1520.5C 341.238,1519.02 341.571,1517.69 342.5,1516.5C 345.565,1515.6 347.398,1513.6 348,1510.5C 348.667,1467.17 348.667,1423.83 348,1380.5C 347.182,1377.41 345.182,1375.41 342,1374.5C 341.51,1373.21 341.343,1371.87 341.5,1370.5 Z M 378.5,1395.5 C 398.866,1395.1 419.2,1395.6 439.5,1397C 448.233,1399.79 452.233,1405.79 451.5,1415C 452.247,1424.17 448.247,1430.17 439.5,1433C 419.197,1434.38 398.864,1434.88 378.5,1434.5C 378.5,1421.5 378.5,1408.5 378.5,1395.5 Z"/></g>
<g><path style="opacity:0.974" fill="#de2328" d="M 739.5,1370.5 C 753.833,1370.5 768.167,1370.5 782.5,1370.5C 782.657,1371.87 782.49,1373.21 782,1374.5C 780.045,1375.45 778.378,1376.79 777,1378.5C 776.044,1411.2 776.377,1443.87 778,1476.5C 781.548,1488.04 789.382,1494.54 801.5,1496C 815.071,1498.57 828.071,1496.9 840.5,1491C 846.403,1487.08 849.903,1481.58 851,1474.5C 852.578,1443.19 852.911,1411.85 852,1380.5C 851.182,1377.41 849.182,1375.41 846,1374.5C 845.51,1373.21 845.343,1371.87 845.5,1370.5C 859.167,1370.5 872.833,1370.5 886.5,1370.5C 886.657,1371.87 886.49,1373.21 886,1374.5C 883.929,1375.36 882.262,1376.7 881,1378.5C 880.667,1409.17 880.333,1439.83 880,1470.5C 880.548,1500.95 865.715,1518.12 835.5,1522C 814.072,1525.24 793.072,1523.57 772.5,1517C 756.603,1510.09 748.103,1497.92 747,1480.5C 746.667,1447.17 746.333,1413.83 746,1380.5C 745.182,1377.41 743.182,1375.41 740,1374.5C 739.51,1373.21 739.343,1371.87 739.5,1370.5 Z"/></g>
<g><path style="opacity:0.979" fill="#de2328" d="M 940.5,1370.5 C 976.202,1370.04 1011.87,1370.54 1047.5,1372C 1060.95,1374.81 1070.11,1382.64 1075,1395.5C 1080.39,1411.27 1079.39,1426.6 1072,1441.5C 1065.14,1451.52 1055.64,1457.35 1043.5,1459C 1021.53,1460.37 999.526,1460.87 977.5,1460.5C 977.333,1477.84 977.5,1495.17 978,1512.5C 979.378,1514.21 981.045,1515.55 983,1516.5C 983.49,1517.79 983.657,1519.13 983.5,1520.5C 969.167,1520.5 954.833,1520.5 940.5,1520.5C 940.238,1519.02 940.571,1517.69 941.5,1516.5C 944.565,1515.6 946.398,1513.6 947,1510.5C 947.667,1467.17 947.667,1423.83 947,1380.5C 946.182,1377.41 944.182,1375.41 941,1374.5C 940.51,1373.21 940.343,1371.87 940.5,1370.5 Z M 977.5,1395.5 C 996.534,1395.11 1015.53,1395.61 1034.5,1397C 1043.46,1399.57 1047.79,1405.57 1047.5,1415C 1047.71,1423.93 1043.71,1429.93 1035.5,1433C 1016.21,1434.44 996.88,1434.94 977.5,1434.5C 977.5,1421.5 977.5,1408.5 977.5,1395.5 Z"/></g>
</svg>
