<?xml version="1.0" standalone="no"?>
<!DOCTYPE svg PUBLIC "-//W3C//DTD SVG 20010904//EN"
 "http://www.w3.org/TR/2001/REC-SVG-20010904/DTD/svg10.dtd">
<svg version="1.0" xmlns="http://www.w3.org/2000/svg"
 width="362.000000pt" height="527.000000pt" viewBox="0 0 362.000000 527.000000"
 preserveAspectRatio="xMidYMid meet">

<g transform="translate(0.000000,527.000000) scale(0.100000,-0.100000)"
fill="#000000" stroke="none">
<path d="M0 3085 l0 -2175 1800 0 1800 0 0 2175 0 2175 -1800 0 -1800 0 0
-2175z m2376 1894 c136 -16 354 -102 472 -186 22 -15 50 -35 63 -43 56 -36
229 -220 280 -300 86 -132 95 -149 134 -245 70 -175 87 -272 88 -500 1 -166
-2 -201 -21 -280 -51 -201 -128 -357 -253 -517 -70 -89 -184 -200 -255 -248
-27 -19 -51 -37 -54 -41 -3 -3 -25 -16 -50 -29 -25 -12 -66 -33 -93 -46 -74
-38 -144 -62 -272 -94 -54 -13 -60 -14 -90 -6 -11 2 -42 5 -68 5 -28 1 -46 5
-42 11 3 5 12 7 20 3 8 -3 15 -2 15 1 0 8 -61 31 -72 28 -5 -1 -8 5 -8 13 0 8
6 12 14 9 9 -4 16 6 20 31 6 28 14 39 34 46 19 7 28 17 30 35 1 14 6 34 12 44
5 10 10 30 10 44 0 23 4 26 38 26 44 0 107 27 171 73 25 19 60 39 77 46 17 7
49 31 71 54 38 40 40 46 45 119 3 53 10 81 21 93 19 18 22 41 8 50 -9 5 -27
110 -23 128 1 4 -7 40 -18 80 -11 39 -28 103 -36 140 -14 60 -20 70 -44 79
-30 10 -60 60 -60 97 0 15 -14 27 -52 44 -71 33 -235 207 -259 276 -6 17 -18
31 -27 31 -8 0 -23 7 -32 15 -14 13 -16 11 -18 -12 -1 -15 -7 -30 -12 -33 -16
-10 11 -55 48 -81 19 -13 39 -33 45 -46 6 -13 14 -23 18 -23 4 0 11 -15 15
-32 6 -30 33 -59 117 -129 l22 -18 -22 -16 c-31 -22 -29 -30 12 -68 35 -32 36
-34 31 -95 -3 -35 -14 -81 -26 -105 l-22 -44 26 -51 c32 -63 33 -89 4 -119
-20 -22 -21 -24 -3 -42 25 -28 13 -71 -20 -71 -13 0 -27 -5 -30 -10 -9 -14
-85 -50 -107 -50 -11 0 -18 -7 -18 -20 0 -16 -7 -20 -38 -20 -48 0 -62 -14
-62 -61 0 -28 5 -39 19 -44 20 -6 36 -33 26 -44 -3 -3 -15 0 -25 7 -23 14 -56
16 -64 4 -3 -5 -18 -7 -34 -4 -22 3 -32 -2 -45 -21 -11 -18 -22 -24 -37 -20
-14 4 -20 0 -20 -11 0 -11 -9 -16 -30 -16 -23 0 -30 4 -30 20 0 13 -7 20 -20
20 -17 0 -20 7 -20 40 0 36 -2 40 -25 40 -15 0 -28 7 -32 18 -4 9 -11 21 -17
25 -8 6 -7 10 2 14 21 8 13 22 -15 25 -23 2 -29 9 -31 33 -2 16 -12 37 -23 46
-14 12 -19 30 -19 68 0 44 -3 51 -20 51 -11 0 -20 6 -20 13 0 18 -24 67 -32
67 -5 0 -8 25 -8 56 0 47 -3 57 -20 61 -11 3 -20 13 -20 22 0 14 2 14 10 1 8
-13 10 -12 10 3 0 9 -4 17 -10 17 -6 0 -10 47 -10 120 0 108 -2 120 -17 120
-16 0 -18 11 -19 80 -1 44 2 80 7 80 5 0 9 32 9 70 0 39 4 70 8 70 5 0 9 37
10 83 3 96 8 117 28 117 10 0 14 12 14 40 0 22 5 40 10 40 6 0 10 7 10 15 0
20 42 105 52 105 4 0 8 -5 8 -11 0 -5 5 -7 10 -4 6 3 10 22 10 41 0 19 5 34
10 34 6 0 10 9 10 19 0 11 5 23 10 26 16 10 11 28 -6 21 -12 -4 -15 -2 -10 9
3 8 0 15 -6 15 -6 0 -8 3 -5 7 4 4 -5 20 -20 36 -25 25 -28 36 -27 88 1 56 0
59 -22 59 -13 0 -24 4 -24 9 0 5 -17 28 -37 51 -21 23 -38 45 -38 48 2 21 41
82 53 82 7 0 28 -11 46 -25 40 -30 47 -31 68 -5 15 16 27 19 78 16 33 -2 62 0
66 5 3 5 18 9 33 9 67 0 89 10 95 45 10 49 66 62 113 25 32 -25 47 -26 33 -1
-12 24 -13 34 -1 27 5 -3 11 1 14 9 6 15 70 14 233 -6z m-506 -3385 c0 -59 -2
-65 -17 -58 -29 13 -121 17 -220 9 l-93 -7 0 -54 c0 -36 4 -54 13 -55 66 -4
181 2 191 10 19 16 26 3 26 -54 0 -56 -7 -70 -26 -55 -7 6 -52 10 -105 8 l-94
-3 0 -65 0 -65 149 -3 c90 -1 153 1 161 8 19 16 25 1 25 -63 0 -53 -2 -58 -17
-51 -10 5 -114 10 -231 12 l-213 3 8 22 c10 26 10 428 0 475 l-6 32 207 0
c116 0 214 5 222 10 8 5 16 10 18 10 1 0 2 -30 2 -66z m-480 -7 c0 -58 0 -59
-27 -53 -66 12 -129 16 -141 8 -11 -7 -13 -53 -10 -221 l3 -211 -60 0 -60 0 0
217 0 218 -70 -3 c-38 -2 -78 -5 -87 -8 -16 -5 -18 2 -18 53 l0 58 235 0 235
0 0 -58z m1446 19 c36 -20 71 -36 79 -36 21 0 19 -11 -11 -63 l-25 -46 -34 34
c-59 59 -177 74 -249 32 -47 -27 -86 -96 -86 -152 0 -45 28 -112 56 -137 30
-27 89 -48 133 -48 64 0 161 53 161 87 0 8 5 11 10 8 13 -8 60 -81 60 -93 0
-4 -15 -15 -32 -23 -18 -9 -53 -26 -78 -40 -39 -21 -58 -24 -140 -24 -78 0
-102 4 -135 22 -51 27 -99 77 -121 128 -24 56 -24 187 0 235 32 61 66 100 109
122 61 31 94 38 170 33 55 -3 81 -11 133 -39z m518 17 c58 -30 93 -63 122
-115 25 -46 28 -64 29 -133 0 -98 -23 -152 -89 -213 -140 -129 -388 -59 -442
124 -37 128 20 280 123 330 75 36 195 39 257 7z m-2761 6 c41 -21 77 -62 83
-96 9 -47 -3 -100 -28 -123 l-22 -20 26 -27 c53 -56 61 -114 23 -178 -40 -69
-63 -75 -285 -75 -179 0 -192 1 -185 18 8 21 7 476 -1 497 -5 13 19 15 181 15
118 0 194 -4 208 -11z m287 -9 c-10 -31 -11 -473 0 -484 21 -21 8 -26 -60 -26
-52 0 -70 3 -70 13 0 8 3 16 6 20 8 7 5 444 -3 475 -5 22 -4 23 63 20 56 -2
68 -6 64 -18z m1210 12 c0 -4 -5 -13 -12 -20 -9 -9 -3 -25 28 -69 22 -31 46
-59 52 -61 6 -2 30 25 52 59 31 48 37 65 29 76 -7 7 -10 16 -7 19 3 2 45 4 94
2 l89 -3 -21 -20 c-12 -11 -55 -67 -97 -124 -67 -91 -75 -107 -65 -125 22 -42
151 -221 164 -229 32 -18 9 -27 -69 -27 -88 0 -104 5 -86 26 8 10 -1 29 -36
79 -26 36 -50 65 -54 65 -4 0 -26 -27 -50 -61 -32 -46 -41 -66 -37 -85 6 -23
5 -24 -53 -24 -33 0 -65 -2 -73 -5 -7 -3 -19 -1 -27 4 -10 6 -2 22 36 70 27
33 71 92 98 131 l49 70 -21 28 c-11 15 -46 65 -78 112 -32 47 -65 89 -72 93
-31 19 -8 27 77 27 50 0 90 -4 90 -8z"/>
<path d="M2408 4643 c-10 -2 -18 -9 -18 -14 0 -14 34 -11 56 6 19 14 19 14 -1
14 -11 -1 -28 -3 -37 -6z"/>
<path d="M2122 4070 c0 -14 2 -19 5 -12 2 6 2 18 0 25 -3 6 -5 1 -5 -13z"/>
<path d="M3083 3893 c9 -14 47 -24 47 -12 0 5 -4 9 -9 9 -5 0 -17 3 -27 7 -11
4 -15 3 -11 -4z"/>
<path d="M3020 3835 c-7 -8 -8 -15 -2 -15 5 0 15 7 22 15 7 8 8 15 2 15 -5 0
-15 -7 -22 -15z"/>
<path d="M3115 3749 c-4 -6 -4 -13 -1 -16 8 -8 36 5 36 17 0 13 -27 13 -35 -1z"/>
<path d="M3215 3090 c-3 -5 -1 -10 4 -10 6 0 11 5 11 10 0 6 -2 10 -4 10 -3 0
-8 -4 -11 -10z"/>
<path d="M3138 3078 c-7 -21 3 -48 19 -48 10 0 13 9 11 27 -3 28 -23 42 -30
21z"/>
<path d="M3124 2965 c-9 -22 1 -29 15 -11 8 10 9 16 1 21 -5 3 -13 -1 -16 -10z"/>
<path d="M3164 1536 c-89 -40 -121 -184 -61 -274 26 -39 83 -72 126 -72 47 0
114 35 139 73 52 78 35 201 -35 254 -41 32 -121 41 -169 19z"/>
<path d="M330 1542 c-5 -2 -10 -28 -10 -58 l0 -54 106 0 c124 0 144 8 144 54
0 52 -19 61 -132 61 -54 0 -102 -1 -108 -3z"/>
<path d="M327 1333 c-4 -3 -7 -35 -7 -70 l0 -64 116 3 c114 3 117 4 137 30 29
39 15 79 -33 95 -37 13 -202 18 -213 6z"/>
<path d="M370 685 c-60 -19 -128 -78 -151 -133 -27 -61 -26 -198 0 -250 52
-102 144 -148 279 -140 62 4 91 11 147 39 57 28 69 38 66 54 -8 37 -6 140 3
158 7 16 0 17 -95 17 -57 0 -114 3 -126 6 -22 6 -23 3 -23 -45 0 -47 10 -65
25 -41 3 6 31 10 61 10 48 0 56 -3 66 -24 25 -55 -28 -86 -147 -86 l-76 0 -47
44 c-44 42 -46 46 -50 109 -7 114 33 178 127 203 66 17 155 -4 188 -44 l22
-26 11 29 c6 17 17 43 25 58 11 21 11 29 2 31 -7 2 -42 13 -78 25 -76 24 -162
26 -229 6z"/>
<path d="M1780 688 c-65 -18 -113 -61 -152 -133 -17 -32 -22 -58 -22 -125 0
-73 3 -92 27 -137 47 -91 122 -132 243 -133 56 0 80 5 122 26 157 78 190 318
60 440 -72 69 -175 92 -278 62z m167 -93 c36 -15 81 -84 90 -139 3 -20 0 -57
-7 -82 -49 -174 -282 -171 -321 4 -17 73 -1 134 48 184 54 55 110 65 190 33z"/>
<path d="M945 431 l0 -261 57 0 c54 0 80 11 58 25 -5 3 -10 45 -10 95 0 98 2
100 70 100 22 0 46 -7 57 -17 34 -31 114 -170 107 -187 -5 -14 4 -16 70 -16
69 0 97 10 63 23 -8 3 -39 46 -70 97 l-56 91 32 14 c69 31 87 60 87 140 0 65
-17 104 -57 131 -25 17 -51 19 -218 22 l-190 3 0 -260z m352 157 c14 -12 17
-76 4 -96 -13 -21 -55 -27 -153 -22 l-93 5 -3 54 c-5 87 -8 85 121 77 61 -4
117 -12 124 -18z"/>
<path d="M2337 678 c4 -7 10 -104 13 -215 5 -185 7 -204 26 -230 38 -50 79
-67 179 -71 114 -5 169 9 212 54 40 43 42 56 45 287 l3 187 -50 0 -50 0 3
-177 c2 -107 -1 -189 -7 -205 -15 -41 -64 -62 -141 -60 -59 2 -68 5 -93 33
l-28 31 3 189 3 189 -63 0 c-48 0 -61 -3 -55 -12z"/>
<path d="M3044 673 c9 -21 8 -465 0 -488 -5 -12 5 -15 60 -15 63 0 66 1 56 19
-15 29 -13 188 3 193 6 3 57 3 112 1 130 -4 175 11 210 71 30 52 32 103 6 155
-37 71 -52 76 -265 79 -180 3 -188 3 -182 -15z m284 -70 c46 -5 55 -10 68 -35
19 -37 5 -80 -32 -97 -27 -12 -132 -15 -183 -5 -30 6 -31 8 -31 59 0 81 4 85
69 85 31 0 80 -3 109 -7z"/>
</g>
</svg>
